<svg xmlns="http://www.w3.org/2000/svg" width="21.052" height="20.908" viewBox="0 0 21.052 20.908"><g transform="translate(-1.171 -1.922)"><g transform="translate(2 2)"><path d="M12.352.75a7.971,7.971,0,0,1,7.041,7.032" fill="none" stroke="#000" stroke-linecap="round" stroke-linejoin="round" stroke-width="1.5" fill-rule="evenodd"/><path d="M12.352,4.293a4.426,4.426,0,0,1,3.5,3.5" fill="none" stroke="#000" stroke-linecap="round" stroke-linejoin="round" stroke-width="1.5" fill-rule="evenodd"/><path d="M5.7,14.3C-1.2,7.4-.217,4.241.511,3.223.6,3.059,2.906-.388,5.375,1.634,11.5,6.679,3.745,5.966,8.889,11.111S13.32,8.5,18.366,14.625c2.022,2.469-1.425,4.772-1.588,4.864C15.76,20.217,12.6,21.2,5.7,14.3Z" fill="none" stroke="#000" stroke-linecap="round" stroke-linejoin="round" stroke-width="1.5" fill-rule="evenodd"/></g></g></svg>