<svg xmlns="http://www.w3.org/2000/svg" xmlns:xlink="http://www.w3.org/1999/xlink" width="65" height="58" viewBox="0 0 65 58"><defs><style>.a{fill:#068571;stroke:#068571;stroke-width:0.4px;}.b{clip-path:url(#a);}</style><clipPath id="a"><rect class="a" width="65" height="58" transform="translate(0 0.427)"/></clipPath></defs><g transform="translate(-228 -125.703)"><g transform="translate(228 125.276)"><g class="b" transform="translate(0 0)"><path class="a" d="M384.236,158.577l.149-11.857a3.641,3.641,0,0,0-3.224-3.66c-3.722-.4-8.477-.845-12.174-1.2a3.641,3.641,0,0,0-3.857,2.454L365.3,132.7a3.992,3.992,0,0,0-3.237-3.979l-13.445-2.6a3.678,3.678,0,0,0-2.884.608,4.734,4.734,0,0,0-1.871,3.247l-.1.01a4.8,4.8,0,0,0-4.116,3.489l-1.278,4.571a5.934,5.934,0,0,0,.932,5.138l4.868,6.648A7.028,7.028,0,0,1,345.53,154v12.621l-.166,4.342-.42,11.011a2.15,2.15,0,0,0,2.139,2.22h14.259a2.139,2.139,0,0,0,2.138-2.221l-.586-15.352V160l2.384,3.256a6.127,6.127,0,0,1,1.17,3.2l-.457,15.538a2.151,2.151,0,0,0,2.139,2.2h12.465a2.15,2.15,0,0,0,2.138-2.216l-.13-4.144a.951.951,0,1,0-1.9.059l.13,4.154a.234.234,0,0,1-.237.245H368.129a.234.234,0,0,1-.237-.245l.453-15.429a7.811,7.811,0,0,0-1.533-4.491l-4.3-5.869a3.461,3.461,0,0,1-.544-2.994l1.128-4.034a2.463,2.463,0,0,1,1.839-1.741v4.828a.951.951,0,1,0,1.9,0v-5.888c-.175-1.335.354-2.846,1.955-2.676l1.139.11v3.543a.951.951,0,1,0,1.9,0v-3.359l2.42.234v3.923a.951.951,0,1,0,1.9,0v-3.739l2.31.224v4.084a.951.951,0,0,0,1.9,0v-3.892a1.9,1.9,0,0,1,2.11,1.815l-.149,11.848a11.238,11.238,0,0,1-.99,3.644,12.459,12.459,0,0,0-.981,4.859v.03l.2,6.3a.952.952,0,0,0,.951.921h.03a.951.951,0,0,0,.921-.98l-.2-6.276c-.141-2.995,1.871-5.507,1.971-8.466Zm-43.4-16.522a4.046,4.046,0,0,1-.635-3.5l1.279-4.571a2.9,2.9,0,0,1,2.191-2.062l-.433,5.8a.951.951,0,1,0,1.9.141l.621-7.7a2.818,2.818,0,0,1,1.075-1.889,1.8,1.8,0,0,1,1.426-.3l.768.148v4.135a.951.951,0,0,0,1.9,0V128.5l3.148.61v3.664a.951.951,0,0,0,1.9,0v-3.3l3.021.585v3.471a.951.951,0,1,0,1.9,0v-3.1l.8.156a2.092,2.092,0,0,1,1.7,2.084l-.168,11.9a12.14,12.14,0,0,1-.292,1.77,4.373,4.373,0,0,0-1.664,2.373l-1.129,4.036a5.362,5.362,0,0,0,.851,4.644v3.912H347.432V154a8.917,8.917,0,0,0-1.732-5.3Zm6.6,21.158h13.559v2.478H347.432Zm14.081,19.009a.235.235,0,0,1-.172.073H347.082a.238.238,0,0,1-.238-.246l.552-14.455h13.631l.552,14.455a.233.233,0,0,1-.066.174Zm0,0" transform="translate(-319.541 -125.911)"/><path class="a" d="M250.257,225.315a4.711,4.711,0,0,0-4.557-3.3,3.654,3.654,0,0,0-4.129-3.768l-10.455,1.476A3.637,3.637,0,0,0,228,223.307l.178,11.9c0,.022,0,.044,0,.065a12.55,12.55,0,0,0,.933,3.772l.2.478a10.575,10.575,0,0,1,.832,4.123v5.432a9.371,9.371,0,0,0-1.268,4.689l-.2,4.8a2.185,2.185,0,0,0,2.42,2.229h13.647a2.185,2.185,0,0,0,2.42-2.229l-.2-4.788a9.4,9.4,0,0,0-1.264-4.684l0-.007v-5.617a6.092,6.092,0,0,1,1.183-3.62c.014-.018.027-.038.04-.058l3.644-5.84a5.347,5.347,0,0,0,.819-4.6Zm-18.2,19.579H243.8v3.5H232.052Zm-.951,14c-.2,0-.53.043-.52-.247.214-2.3-.165-6.311,1.07-8.35h12.542c1.237,2.029.862,6.065,1.074,8.35.01.29-.323.249-.52.247Zm17.909-26.034c-.014.019-.028.039-.04.059l-3.644,5.84a7.969,7.969,0,0,0-1.514,4.237H232.035a12.467,12.467,0,0,0-.965-4.207l-.2-.478a10.635,10.635,0,0,1-.789-3.168l-.177-11.833a1.807,1.807,0,0,1,1.855-1.757v3.189a.951.951,0,1,0,1.9,0v-3.457l2.055-.29v3.653a.951.951,0,1,0,1.9,0v-3.922l2.158-.3v3.2a.951.951,0,0,0,1.9,0v-3.47c1.9-.277,2.255,1.331,2.129,2.852l.04,4.888a.952.952,0,0,0,.951.943h.008a.952.952,0,0,0,.943-.959l-.032-3.95a2.8,2.8,0,0,1,2.709,1.9l1.129,4.035a3.459,3.459,0,0,1-.544,2.994Zm0,0" transform="translate(-228 -202.508)"/></g></g></g></svg>