<svg id="Group_11257" data-name="Group 11257" xmlns="http://www.w3.org/2000/svg" width="45.064" height="58.861" viewBox="0 0 45.064 58.861">
  <path id="Path_15002" data-name="Path 15002" d="M-2564.516,4326.885c-1.268-.485-2.481-1.114-3.749-1.6a16.531,16.531,0,0,0-8.925-1.206,12.94,12.94,0,0,0-8.177,5.252,7.141,7.141,0,0,1-.72.713,5.255,5.255,0,0,1-.02-1.044c.221-1.258.417-2.525.742-3.758,1.449-5.5,4.521-9.649,10-11.729a2.9,2.9,0,0,1,.559-.1,4.379,4.379,0,0,1-.438.373,16.717,16.717,0,0,0-5.968,6.437c-.654,1.271-.62,1.354.861,1.3a15.8,15.8,0,0,0,2.975-.314c5.346-1.254,9.1-4.3,10.774-9.671.2-.654.1-.944-.588-1.058a20.677,20.677,0,0,0-10.552.563c-4.96,1.79-7.7,5.7-9.347,10.443-.954,2.747-1.588,5.6-2.366,8.412-.053.192-.1.386-.152.579a5.091,5.091,0,0,1-.389-.526c-.626-1.114-1.172-2.279-1.874-3.343a22.847,22.847,0,0,0-8.093-7.184,7.106,7.106,0,0,1-.664-.481,5.761,5.761,0,0,1,.861.126,15.393,15.393,0,0,1,7.272,4.668c.5.561,1.039,1.08,1.56,1.618-.075-.9-.147-1.8-.229-2.7a1.291,1.291,0,0,0-.114-.34c-1.254-3.154-3.777-4.848-6.833-5.932-3.288-1.167-6.434-.428-9.625.538-1.3.392-1.386.869-.988,1.987,2.09,5.856,7.07,9.366,13.933,9.743,1.711.094,2.165.44,2.61,2.075a29.059,29.059,0,0,1,.559,12.712,2.354,2.354,0,0,1-1.936,2.115c-1.507.4-3.02.8-4.48,1.333-2.015.736-3.994,1.575-5.965,2.425-.353.152-.592.571-.883.867a11.434,11.434,0,0,0,1.156.115q7.33.013,14.659.005h1.562q6.789,0,13.578-.008a3.147,3.147,0,0,0,.744-.186,2.092,2.092,0,0,0-.424-.549,14.222,14.222,0,0,0-2.845-1.691c-2.684-.912-5.443-1.6-8.142-2.478-.655-.212-1.546-.678-1.722-1.224a13.778,13.778,0,0,1,.256-10.068c.993-2.26,1.385-2.409,3.781-1.729,3.159.9,6.314,1.841,9.665,1.113a13.331,13.331,0,0,0,8.433-5.284C-2563.741,4327.576-2563.686,4327.2-2564.516,4326.885Z" transform="translate(2608.931 -4291.441)" fill="#214570"/>
  <path id="Path_15003" data-name="Path 15003" d="M-2586.537,4303.374c2.273,1.445,4.521,2.919,5.679,5.516a1.883,1.883,0,0,0,.376.422,1.773,1.773,0,0,0,.28-.521c.321-2.238,1.06-4.52.85-6.709-.657-6.876-4.718-11.147-11.181-13.23-3.048-.982-3.129-.885-3.129,1.449C-2593.7,4296.606-2591.033,4300.517-2586.537,4303.374Z" transform="translate(2601.007 -4280.126)" fill="#214570"/>
  <path id="Path_15004" data-name="Path 15004" d="M-2562.5,4283.73c.794-.21,1.019.018,1.285.708a3.472,3.472,0,0,0,4.243,2.213,3.435,3.435,0,0,0,2.332-4.373c-.207-.78-.009-1.042.686-1.293a3.2,3.2,0,0,0,2.33-2.883c-.007-2.66-2.027-4.3-4.223-3.74-.844.214-1.281.235-1.624-.769a3.312,3.312,0,0,0-4.274-2.054,3.392,3.392,0,0,0-2.244,4.292c.18.661.209,1-.592,1.3a3.359,3.359,0,0,0-2.256,4.388A3.456,3.456,0,0,0-2562.5,4283.73Zm3.231-6.189a1.458,1.458,0,0,1,1.466,1.585,1.373,1.373,0,0,1-1.56,1.428A1.389,1.389,0,0,1-2560.8,4279C-2560.758,4278.031-2560.139,4277.627-2559.273,4277.541Z" transform="translate(2587.192 -4271.349)" fill="#214570"/>
</svg>
