<?xml version="1.0" encoding="utf-8"?>
<!-- Generator: Adobe Illustrator 25.2.3, SVG Export Plug-In . SVG Version: 6.00 Build 0)  -->
<svg version="1.1" id="Layer_1" xmlns="http://www.w3.org/2000/svg" xmlns:xlink="http://www.w3.org/1999/xlink" x="0px" y="0px"
	 viewBox="0 0 26 26" style="enable-background:new 0 0 26 26;" xml:space="preserve">
<style type="text/css">
	.st0{fill:#214570;}
	.st1{fill:none;}
	.st2{fill:#FFFFFF;}
</style>
<g id="Component_18" transform="translate(1252.773 619.559)">
	<g id="share" transform="translate(-3 -0.785)">
		<path id="Rectangle_348" class="st0" d="M-1236.77-618.77L-1236.77-618.77c7.18,0,13,5.82,13,13l0,0c0,7.18-5.82,13-13,13l0,0
			c-7.18,0-13-5.82-13-13l0,0C-1249.77-612.95-1243.95-618.77-1236.77-618.77z"/>
	</g>
</g>
<g id="share-24px" transform="translate(1254.399 623.385)">
	<path id="Path_15" class="st1" d="M-1250-619h16.43v16.43H-1250V-619z"/>
	<path id="Path_16" class="st2" d="M-1237.34-607.84c-0.54,0-1.05,0.2-1.45,0.55l-5.29-2.99c0.04-0.16,0.06-0.33,0.07-0.5
		c0-0.17-0.03-0.34-0.07-0.5l5.23-2.96c0.41,0.38,0.95,0.58,1.51,0.58c1.21,0.02,2.21-0.95,2.22-2.15c0,0,0,0,0,0
		c-0.04-1.23-1.06-2.2-2.29-2.16c-1.18,0.04-2.12,0.98-2.16,2.16c0,0.17,0.03,0.34,0.07,0.5l-5.23,2.95
		c-0.41-0.38-0.95-0.58-1.51-0.58c-1.19-0.04-2.19,0.9-2.22,2.09s0.9,2.19,2.09,2.22c0.04,0,0.09,0,0.13,0
		c0.56,0,1.1-0.21,1.51-0.58l5.28,2.99c-0.04,0.15-0.06,0.31-0.06,0.47c-0.04,1.2,0.9,2.19,2.1,2.23s2.19-0.9,2.23-2.1
		s-0.9-2.19-2.1-2.23C-1237.29-607.84-1237.31-607.84-1237.34-607.84L-1237.34-607.84z"/>
</g>
</svg>
